# xmcd
#
# Track frame offsets:
#	150
#	14602
#	28259
#	43354
#	58625
#	73196
#	87553
#	101350
#	113894
#	127614
#	139448
#	151593
#	165690
#	180290
#	191200
#	203846
#	216424
#	228525
#	241365
#	253862
#	266759
#	283539
#	303100
#	319052
#
# Disc length: 4430 seconds
#
# Revision: 1
# Processed by: cddbd v1.5.2PL0 Copyright (c) Steve Scherf et al.
# Submitted via: EasyCDDAExtractor 16.0.4.1
#
DISCID=64114c18
DTITLE=Various Artist - From The Delta To Today  CD 1
DYEAR=1900
DGENRE=Blues
TTITLE0=Bessie Smith,Louis Armstrong - St. Louis Blues
TTITLE1=Blind Lemon Jefferson - Matchbox Blues
TTITLE2=Blind Willie Johnson - Dark Was The Night, Cold Was The Ground
TTITLE3=Mississippi John Hurt - Frankie
TTITLE4=Blind Willie Mctell - Travelin' Blues
TTITLE5=Memphis Minnie - When The Levee Breaks
TTITLE6=Mississippi Sheiks - Sitting On Top Of The World
TTITLE7=Big Bill Broonzy - I Can't Be Satisfied
TTITLE8=Lonnie Johnson - Low Down St. Louis Blues
TTITLE9=Leroy Carr - Stormy Night Blues
TTITLE10=Charley Patton - Revenue Man Blues
TTITLE11=Leadbelly - Four Day Worry Blues
TTITLE12=Blind Boy Fuller - Baby You Gotta Change Your Mind
TTITLE13=Robert Johnson - Love In Vain
TTITLE14=Bukka White - Fixin' To Die Blues
TTITLE15=Brownie Mcghee - Workingman's Blues
TTITLE16=Champion Jack Dupree - Hurry Down Sunshine
TTITLE17=Muddy Waters - Hard Day Blues
TTITLE18=Big John Williams - Baby Please Don't Go
TTITLE19=Lighhtnin' Hopkins - Home In The Woods (No Good Woman)
TTITLE20=Elvis Presley - Reconsider Baby
TTITLE21=Son House - Death Letter
TTITLE22=Rising Sons - By and By (Poor Me)
TTITLE23=Nina Simone - In THe Dark
EXTD=
EXTT0=
EXTT1=
EXTT2=
EXTT3=
EXTT4=
EXTT5=
EXTT6=
EXTT7=
EXTT8=
EXTT9=
EXTT10=
EXTT11=
EXTT12=
EXTT13=
EXTT14=
EXTT15=
EXTT16=
EXTT17=
EXTT18=
EXTT19=
EXTT20=
EXTT21=
EXTT22=
EXTT23=
PLAYORDER=
